<?xml version="1.0" encoding="UTF-8" standalone="no"?> <svg id="Layer_1" data-name="Layer 1" xmlns="http://www.w3.org/2000/svg" viewBox="0 0 128 128"><defs><style>.cls-1{fill:#2d3e50;}</style></defs><title>b</title><path class="cls-1" d="M119.56132,32.71824a2.741,2.741,0,0,0-2.72876-2.48248h-4.053l-.48725-5.11605L110.73991,8.72058c-16.41045,1.02266-32.2147,4.7393-46.7385,14.164C49.47477,13.45988,33.67054,9.74324,17.26009,8.72058L15.7077,25.11971l-.48723,5.11605H11.16469a2.741,2.741,0,0,0-2.72876,2.48258l-6.68547,70.601,62.24812,15.96,62.251-15.96ZM22.67925,25.11971l.84134-8.88652c11.68533,1.33991,21.637,4.22938,30.5575,8.88652q3.15293,1.64444,6.14436,3.58634l2.3569,1.52971,1.42208.9235,1.42206-.9235,2.35408-1.52971q2.99569-1.94615,6.14153-3.58634c8.92335-4.65714,18.875-7.5466,30.56033-8.88652l.84134,8.88652.48442,5.11605.15864,1.68269.64587,6.79874,5.00275,52.829A126.26993,126.26993,0,0,0,87.38908,94.0136C78.19094,95.98524,70.48572,99.192,64.00142,103.767a62.64781,62.64781,0,0,0-23.3905-9.75336,126.04314,126.04314,0,0,0-24.22334-2.46738l5.00275-52.829.64587-6.79874.15864-1.68269ZM10.1129,98.44412c20.51237-.11332,39.74147,1.96313,53.31912,13.674Zm54.46073,13.67113c13.57483-11.708,32.80393-13.78445,53.31345-13.67113Z"/></svg>